<?xml version="1.0" standalone="no"?>
<!DOCTYPE svg PUBLIC "-//W3C//DTD SVG 20010904//EN"
 "http://www.w3.org/TR/2001/REC-SVG-20010904/DTD/svg10.dtd">
<svg version="1.0" xmlns="http://www.w3.org/2000/svg"
 width="579.000000pt" height="762.000000pt" viewBox="0 0 579.000000 762.000000"
 preserveAspectRatio="xMidYMid meet">

<g transform="translate(0.000000,762.000000) scale(0.100000,-0.100000)"
fill="#000000" stroke="none">
<path d="M0 3810 l0 -3810 2895 0 2895 0 0 3810 0 3810 -2895 0 -2895 0 0
-3810z m2857 1713 c-13 -12 -87 -20 -87 -9 0 6 20 12 46 13 26 1 44 0 41 -4z
m270 1 c-3 -3 -12 -4 -19 -1 -8 3 -5 6 6 6 11 1 17 -2 13 -5z m-387 -34 c-7
-12 -10 -33 -7 -46 2 -14 0 -27 -4 -30 -13 -8 -11 51 3 81 6 14 13 23 15 21 3
-2 -1 -14 -7 -26z m431 4 c10 -13 10 -17 -2 -25 -8 -5 -21 -8 -29 -8 -11 1
-10 3 3 6 20 5 23 29 5 36 -8 4 -9 6 -2 6 6 1 17 -6 25 -15z m-377 -43 c-3 -3
-15 6 -27 18 l-22 24 27 -19 c14 -10 24 -21 22 -23z m113 33 c-3 -3 -12 -4
-19 -1 -8 3 -5 6 6 6 11 1 17 -2 13 -5z m-160 -36 c-3 -8 -6 -5 -6 6 -1 11 2
17 5 13 3 -3 4 -12 1 -19z m153 -14 c0 -2 -7 -4 -15 -4 -8 0 -15 4 -15 10 0 5
7 7 15 4 8 -4 15 -8 15 -10z m43 9 c-7 -2 -19 -2 -25 0 -7 3 -2 5 12 5 14 0
19 -2 13 -5z m180 -5 c-2 -5 1 -8 8 -8 7 0 10 -2 7 -5 -3 -3 -20 1 -39 9 l-34
15 32 -2 c17 -1 29 -5 26 -9z m67 1 c0 -11 -27 -12 -34 -1 -2 4 4 9 15 9 10 1
19 -2 19 -8z m-383 -15 c-3 -3 -12 -4 -19 -1 -8 3 -5 6 6 6 11 1 17 -2 13 -5z
m281 -11 c-10 -2 -26 -2 -35 0 -10 3 -2 5 17 5 19 0 27 -2 18 -5z m-95 -10
c-7 -2 -21 -2 -30 0 -10 3 -4 5 12 5 17 0 24 -2 18 -5z m182 -13 c-3 -5 -14
-10 -23 -10 -15 0 -15 2 -2 10 20 13 33 13 25 0z m-385 -10 c-34 -11 -60 -11
-35 0 11 5 29 8 40 8 16 0 15 -2 -5 -8z m100 -10 c0 -5 -7 -7 -15 -4 -8 4 -15
8 -15 10 0 2 7 4 15 4 8 0 15 -4 15 -10z m165 0 c-3 -5 -11 -10 -16 -10 -6 0
-7 5 -4 10 3 6 11 10 16 10 6 0 7 -4 4 -10z m112 -37 c-3 -10 -5 -4 -5 12 0
17 2 24 5 18 2 -7 2 -21 0 -30z m-428 -88 l0 -20 -9 20 c-5 11 -9 29 -9 40 l0
20 9 -20 c5 -11 9 -29 9 -40z m438 18 c-3 -10 -5 -4 -5 12 0 17 2 24 5 18 2
-7 2 -21 0 -30z m-16 -46 c-10 -9 -11 -8 -5 6 3 10 9 15 12 12 3 -3 0 -11 -7
-18z m-81 -17 c0 -5 -2 -10 -4 -10 -3 0 -8 5 -11 10 -3 6 -1 10 4 10 6 0 11
-4 11 -10z m-90 -5 c0 -2 -10 -10 -22 -16 -21 -11 -22 -11 -9 4 13 16 31 23
31 12z m12 -33 c-7 -2 -12 -17 -12 -33 0 -21 -5 -29 -17 -28 -11 0 -13 3 -5 6
6 2 12 13 12 24 0 25 24 63 29 47 2 -7 -1 -14 -7 -16z m63 8 c8 0 17 -5 21
-11 4 -7 0 -9 -14 -5 -17 6 -21 2 -25 -21 -2 -18 -4 -12 -5 17 0 25 2 39 5 33
2 -7 11 -13 18 -13z m72 -37 c-3 -10 -5 -2 -5 17 0 19 2 27 5 18 2 -10 2 -26
0 -35z m-287 27 c0 -5 -4 -10 -9 -10 -6 0 -13 5 -16 10 -3 6 1 10 9 10 9 0 16
-4 16 -10z m77 4 c-3 -3 -12 -4 -19 -1 -8 3 -5 6 6 6 11 1 17 -2 13 -5z m100
-51 c-3 -10 -5 -2 -5 17 0 19 2 27 5 18 2 -10 2 -26 0 -35z m-132 27 c3 -5 1
-10 -4 -10 -6 0 -11 5 -11 10 0 6 2 10 4 10 3 0 8 -4 11 -10z m272 -27 c-3
-10 -5 -4 -5 12 0 17 2 24 5 18 2 -7 2 -21 0 -30z m-59 -4 c-3 -8 -7 -3 -11
10 -4 17 -3 21 5 13 5 -5 8 -16 6 -23z m-371 -1 c-3 -8 -6 -5 -6 6 -1 11 2 17
5 13 3 -3 4 -12 1 -19z m63 1 c0 -5 -4 -9 -10 -9 -5 0 -10 7 -10 16 0 8 5 12
10 9 6 -3 10 -10 10 -16z m147 -221 c-1 -46 -3 -11 -3 77 0 88 2 125 3 83 2
-42 2 -114 0 -160z m-50 200 c-3 -8 -6 -5 -6 6 -1 11 2 17 5 13 3 -3 4 -12 1
-19z m30 -20 c-3 -7 -5 -2 -5 12 0 14 2 19 5 13 2 -7 2 -19 0 -25z m-57 6 c0
-14 -3 -14 -15 -4 -8 7 -15 14 -15 16 0 2 7 4 15 4 8 0 15 -7 15 -16z m97 -6
c-3 -8 -6 -5 -6 6 -1 11 2 17 5 13 3 -3 4 -12 1 -19z m190 -25 c-3 -10 -5 -2
-5 17 0 19 2 27 5 18 2 -10 2 -26 0 -35z m-430 -35 c-2 -13 -4 -3 -4 22 0 25
2 35 4 23 2 -13 2 -33 0 -45z m300 30 c-3 -8 -6 -5 -6 6 -1 11 2 17 5 13 3 -3
4 -12 1 -19z m30 7 c0 -8 -4 -15 -9 -15 -10 0 -11 14 -1 23 9 10 10 9 10 -8z
m30 -22 c-3 -10 -5 -4 -5 12 0 17 2 24 5 18 2 -7 2 -21 0 -30z m101 -68 c0
-22 -3 -19 -9 15 -10 60 -9 108 2 55 4 -22 8 -53 7 -70z m-338 91 c0 -3 -4 -8
-10 -11 -5 -3 -10 -1 -10 4 0 6 5 11 10 11 6 0 10 -2 10 -4z m-93 -28 c-3 -8
-6 -5 -6 6 -1 11 2 17 5 13 3 -3 4 -12 1 -19z m90 -20 c-3 -8 -6 -5 -6 6 -1
11 2 17 5 13 3 -3 4 -12 1 -19z m283 12 c0 -5 -7 -7 -15 -4 -8 4 -15 8 -15 10
0 2 7 4 15 4 8 0 15 -4 15 -10z m17 -22 c-3 -8 -6 -5 -6 6 -1 11 2 17 5 13 3
-3 4 -12 1 -19z m-40 -25 c1 -33 0 -35 -7 -13 -11 35 -11 50 -2 50 5 0 9 -17
9 -37z m-310 -5 c-3 -7 -5 -2 -5 12 0 14 2 19 5 13 2 -7 2 -19 0 -25z m70 0
c-3 -7 -5 -2 -5 12 0 14 2 19 5 13 2 -7 2 -19 0 -25z m-150 -15 c-3 -10 -5 -4
-5 12 0 17 2 24 5 18 2 -7 2 -21 0 -30z m333 26 c0 8 2 12 6 9 3 -3 -1 -21 -9
-39 -11 -27 -14 -30 -20 -16 -5 12 -3 16 5 11 8 -5 9 2 4 22 -5 21 -4 25 4 14
8 -12 10 -13 10 -1z m-123 -51 c-2 -13 -4 -5 -4 17 -1 22 1 32 4 23 2 -10 2
-28 0 -40z m-52 -18 c-9 -41 -17 -33 -9 9 4 17 9 30 11 27 3 -2 2 -19 -2 -36z
m-168 -22 c-3 -7 -5 -2 -5 12 0 14 2 19 5 13 2 -7 2 -19 0 -25z m293 22 c0 -5
-5 -10 -11 -10 -5 0 -7 5 -4 10 3 6 8 10 11 10 2 0 4 -4 4 -10z m51 -50 c-5
-25 -9 -35 -10 -24 -1 28 11 92 16 79 1 -6 -1 -30 -6 -55z m-274 -12 c-2 -13
-4 -3 -4 22 0 25 2 35 4 23 2 -13 2 -33 0 -45z m400 30 c-3 -7 -5 -2 -5 12 0
14 2 19 5 13 2 -7 2 -19 0 -25z m-373 -4 c3 -8 2 -12 -4 -9 -6 3 -10 10 -10
16 0 14 7 11 14 -7z m393 -16 c-3 -8 -6 -5 -6 6 -1 11 2 17 5 13 3 -3 4 -12 1
-19z m-350 -20 c-3 -8 -6 -5 -6 6 -1 11 2 17 5 13 3 -3 4 -12 1 -19z m180 -32
c-3 -8 -16 -16 -29 -19 -19 -4 -18 -5 7 -6 17 -2 38 -4 48 -6 9 -2 17 0 17 4
0 4 15 7 33 8 26 2 28 0 12 -7 -22 -9 -9 -14 33 -10 12 1 22 -4 22 -11 0 -6 8
-18 18 -26 9 -8 11 -12 4 -8 -7 4 -43 -1 -80 -10 -53 -14 -93 -16 -194 -12
-71 3 -128 2 -128 -3 0 -15 87 -23 210 -18 l118 4 7 -55 c11 -91 36 -205 47
-216 7 -7 9 2 4 30 -35 219 -38 248 -24 256 25 17 33 9 36 -38 2 -25 7 -55 13
-65 5 -10 7 -22 4 -27 -16 -26 61 -216 92 -228 7 -3 13 -10 13 -15 0 -6 25
-43 55 -84 l55 -73 5 -318 c5 -299 9 -360 22 -401 4 -15 3 -15 -6 -2 -9 11
-11 -5 -10 -68 2 -83 -5 -101 -36 -102 -6 0 -10 147 -11 420 l0 420 -24 33
c-14 17 -54 74 -89 126 -36 52 -66 90 -69 83 -2 -6 32 -64 75 -128 l78 -116 3
-421 c2 -333 0 -422 -10 -429 -23 -14 -78 -9 -78 7 0 26 -47 65 -76 65 -34 0
-74 -36 -74 -67 0 -22 -3 -23 -87 -23 -91 0 -343 15 -425 26 -45 6 -48 8 -48
36 l0 31 58 -7 c31 -4 79 -13 106 -21 70 -21 103 -19 131 10 51 50 25 113 -72
179 -38 25 -85 63 -107 85 -22 23 -56 46 -77 53 -36 10 -39 14 -39 47 0 27 -3
32 -10 21 -5 -8 -10 -27 -10 -42 0 -31 -3 -33 -33 -16 -28 15 -47 34 -41 41 4
3 7 74 9 157 2 83 6 181 9 218 4 49 3 59 -4 37 l-9 -30 4 30 c7 54 10 70 15
75 3 3 18 22 33 43 16 20 38 48 50 61 13 13 33 45 45 70 13 25 28 48 33 52 5
3 7 15 3 26 -4 13 -2 18 4 14 15 -9 43 98 57 218 9 79 24 93 113 104 l72 8 0
-28 c0 -15 5 -28 10 -28 6 0 10 14 10 30 0 25 4 30 25 30 14 0 25 5 25 10 0 6
11 10 25 10 17 0 25 6 25 17 0 9 3 14 6 10 4 -3 4 -13 1 -21z m108 6 c-3 -3
-11 0 -18 7 -9 10 -8 11 6 5 10 -3 15 -9 12 -12z m-299 -18 c-4 -9 -9 -15 -11
-12 -3 3 -3 13 1 22 4 9 9 15 11 12 3 -3 3 -13 -1 -22z m269 16 c3 -5 -1 -10
-9 -10 -9 0 -16 5 -16 10 0 6 4 10 9 10 6 0 13 -4 16 -10z m-383 -23 c3 -16 0
-24 -9 -24 -8 0 -11 7 -8 14 3 8 5 19 5 24 0 18 8 9 12 -14z m348 13 c0 -5 -7
-7 -15 -4 -8 4 -15 8 -15 10 0 2 7 4 15 4 8 0 15 -4 15 -10z m-383 -62 c-3 -7
-5 -2 -5 12 0 14 2 19 5 13 2 -7 2 -19 0 -25z m540 0 c-3 -8 -6 -5 -6 6 -1 11
2 17 5 13 3 -3 4 -12 1 -19z m-521 -34 c-4 -9 -9 -15 -11 -12 -3 3 -3 13 1 22
4 9 9 15 11 12 3 -3 3 -13 -1 -22z m532 -54 l0 -25 -8 25 c-4 14 -8 34 -8 45
l-1 20 9 -20 c5 -11 8 -31 8 -45z m12 -75 c0 -18 -4 -23 -15 -19 -8 4 -15 10
-15 16 0 5 5 6 10 3 6 -3 10 1 10 9 0 9 2 16 5 16 3 0 5 -11 5 -25z m-593 -17
c-3 -7 -5 -2 -5 12 0 14 2 19 5 13 2 -7 2 -19 0 -25z m594 -51 c-7 -9 -6 -25
4 -52 9 -25 15 -32 15 -20 l1 20 9 -20 c12 -27 12 -43 0 -25 -9 13 -10 13 -11
0 0 -8 -9 5 -20 29 -17 38 -18 48 -7 73 7 15 15 23 16 18 2 -6 -1 -16 -7 -23z
m-604 -9 c-3 -7 -5 -2 -5 12 0 14 2 19 5 13 2 -7 2 -19 0 -25z m620 -20 c-3
-8 -6 -5 -6 6 -1 11 2 17 5 13 3 -3 4 -12 1 -19z m-639 -63 c1 -15 -4 -28 -13
-31 -8 -4 -15 -12 -15 -18 0 -7 -7 -13 -15 -13 -12 0 -11 5 5 22 11 12 20 28
20 36 0 13 8 29 14 29 1 0 3 -11 4 -25z m736 -107 c9 -10 13 -18 9 -18 -14 0
-29 15 -51 50 -12 19 -22 28 -22 20 0 -13 -1 -13 -10 0 -6 9 -5 17 2 22 7 4
21 -7 34 -25 12 -18 29 -40 38 -49z m-814 -2 c0 -2 -7 -9 -15 -16 -13 -11 -14
-10 -9 4 5 14 24 23 24 12z m11 -19 c-10 -9 -11 -8 -5 6 3 10 9 15 12 12 3 -3
0 -11 -7 -18z m859 -58 c12 -16 20 -32 17 -35 -2 -3 -14 11 -25 31 -26 43 -21
46 8 4z m-933 -11 c-3 -8 -6 -5 -6 6 -1 11 2 17 5 13 3 -3 4 -12 1 -19z m-20
-40 c-3 -7 -5 -2 -5 12 0 14 2 19 5 13 2 -7 2 -19 0 -25z m993 -80 c0 -19 -16
-5 -17 14 -2 18 0 20 7 8 5 -8 10 -18 10 -22z m-1004 -96 l2 -97 -9 75 c-7 63
-5 120 4 120 1 0 3 -44 3 -98z m1001 33 c0 -8 -4 -12 -9 -9 -4 3 -8 9 -8 15 0
5 4 9 8 9 5 0 9 -7 9 -15z m110 -86 c37 -46 56 -100 51 -144 -3 -29 -5 -30
-50 -29 -26 0 -49 2 -51 5 -2 2 -7 60 -10 129 -6 119 -5 124 11 102 9 -13 32
-41 49 -63z m-112 31 c3 -5 1 -10 -4 -10 -6 0 -11 5 -11 10 0 6 2 10 4 10 3 0
8 -4 11 -10z m12 -146 c-3 -3 -12 -4 -19 -1 -8 3 -5 6 6 6 11 1 17 -2 13 -5z
m-6 -54 c6 0 7 -5 4 -10 -11 -17 -25 0 -24 28 2 24 2 24 6 5 2 -13 9 -23 14
-23z m9 -52 c0 -6 -6 -5 -15 2 -8 7 -15 14 -15 16 0 2 7 1 15 -2 8 -4 15 -11
15 -16z m200 -4 c15 -39 13 -274 -2 -274 -7 0 -30 -3 -50 -6 l-36 -6 -7 48
c-4 27 -13 84 -21 128 -20 114 -20 116 20 116 19 0 38 5 41 10 12 20 45 10 55
-16z m-1258 -65 c59 -33 108 -64 108 -68 0 -18 -14 -19 -42 -5 -16 8 -35 13
-41 11 -7 -2 7 -14 31 -26 45 -23 58 -47 20 -36 -22 6 -22 5 -5 -8 17 -14 17
-18 3 -51 -10 -23 -21 -36 -33 -35 -10 0 -67 17 -128 37 -108 36 -110 38 -123
76 -22 69 22 166 75 166 15 0 75 -27 135 -61z m1048 40 c0 -5 -4 -9 -8 -9 -5
0 -9 7 -9 15 0 8 4 12 9 9 4 -3 8 -9 8 -15z m70 -6 c0 -15 8 -79 17 -141 15
-98 15 -115 3 -122 -10 -6 -18 -4 -25 8 -14 25 -20 282 -6 282 6 0 11 -12 11
-27z m-63 -95 c-3 -7 -5 -2 -5 12 0 14 2 19 5 13 2 -7 2 -19 0 -25z m-836 -19
c16 -11 29 -26 29 -32 0 -7 37 -37 82 -67 92 -61 115 -97 85 -127 -16 -16 -22
-16 -105 5 -49 12 -97 22 -106 22 -13 0 -15 4 -6 19 20 38 10 45 -18 12 -22
-27 -35 -34 -61 -33 -18 0 -35 3 -38 6 -3 3 6 32 20 63 14 32 29 72 32 88 13
59 17 65 37 65 11 0 33 -9 49 -21z m836 -31 c-3 -7 -5 -2 -5 12 0 14 2 19 5
13 2 -7 2 -19 0 -25z m-6 -229 l-11 -34 5 34 c3 18 6 45 6 60 l2 26 4 -26 c2
-15 -1 -42 -6 -60z m-1011 47 c0 -8 19 -20 42 -28 43 -14 53 -25 40 -45 -11
-17 -67 -1 -67 19 0 8 -8 23 -18 32 -19 19 -22 36 -7 36 6 0 10 -6 10 -14z
m1239 -38 l40 -53 -29 -3 c-36 -4 -41 -11 -75 -95 l-27 -68 20 -37 c10 -20 29
-55 42 -77 51 -89 -14 -141 -91 -73 -47 43 -59 69 -59 135 0 47 6 73 26 110
25 48 28 92 9 150 -6 18 -1 26 26 42 53 33 73 27 118 -31z m-457 -25 c30 -27
23 -53 -14 -53 -18 0 -43 -3 -55 -6 -19 -5 -23 -2 -23 17 0 50 55 76 92 42z
m-770 -31 c-10 -3 -10 -7 -1 -18 10 -12 9 -13 -5 -8 -9 3 -16 15 -16 25 0 13
5 17 17 12 11 -4 13 -8 5 -11z m993 -12 c-3 -5 -10 -10 -16 -10 -5 0 -9 5 -9
10 0 6 7 10 16 10 8 0 12 -4 9 -10z m241 -45 c-35 -35 -50 -90 -40 -150 5 -29
5 -29 -11 -10 -26 33 -28 60 -6 108 12 25 21 50 21 56 0 18 30 39 49 34 18 -5
17 -8 -13 -38z m-1458 -7 c71 -13 78 -21 83 -99 l4 -44 -40 -4 -40 -5 38 -5
c62 -10 46 -25 -39 -37 -94 -14 -121 -6 -146 46 -23 47 -22 98 3 139 17 28 24
32 47 27 15 -3 56 -11 90 -18z m1209 -10 c-3 -8 -6 -5 -6 6 -1 11 2 17 5 13 3
-3 4 -12 1 -19z m-993 -9 c21 -11 66 -25 100 -30 82 -13 130 -38 134 -68 2
-13 -1 -28 -6 -33 -7 -7 -163 -38 -194 -38 -4 0 -3 13 2 30 5 16 5 32 1 35 -5
2 -13 -14 -20 -35 -12 -42 -37 -64 -83 -75 l-28 -7 0 75 c0 41 -3 95 -6 121
l-7 46 34 0 c19 0 52 -9 73 -21z m1013 -31 c-3 -7 -5 -2 -5 12 0 14 2 19 5 13
2 -7 2 -19 0 -25z m-20 -75 c-2 -21 -4 -6 -4 32 0 39 2 55 4 38 2 -18 2 -50 0
-70z m0 -75 c-3 -8 -6 -5 -6 6 -1 11 2 17 5 13 3 -3 4 -12 1 -19z m20 -20 c-3
-8 -6 -5 -6 6 -1 11 2 17 5 13 3 -3 4 -12 1 -19z m-825 -8 c61 0 82 -20 75
-72 -3 -21 -1 -41 4 -44 12 -7 11 -61 -1 -69 -6 -4 -30 -3 -53 1 -23 4 -34 9
-24 12 9 2 17 12 17 23 0 15 -7 19 -35 19 -22 0 -35 -5 -35 -13 0 -9 -10 -12
-30 -9 l-30 4 0 73 c0 77 6 88 45 80 11 -3 41 -5 67 -5z m296 -24 c3 -25 2
-26 -51 -26 -40 0 -56 -4 -61 -15 -4 -12 5 -15 50 -15 54 0 55 0 52 -27 -3
-26 -6 -28 -52 -28 -30 0 -51 -5 -53 -12 -4 -10 12 -13 56 -13 l61 0 0 -30 c0
-30 0 -30 -57 -30 -31 0 -72 5 -90 12 l-33 12 0 96 c0 53 3 99 6 102 3 3 42 5
87 3 80 -2 82 -3 85 -29z m212 2 c0 -27 -1 -28 -55 -28 -42 0 -55 -3 -55 -15
0 -11 12 -15 49 -15 32 0 51 -5 54 -13 9 -24 -7 -36 -52 -39 -68 -5 -64 -26 6
-30 54 -3 58 -5 58 -28 0 -25 -1 -25 -90 -25 l-90 0 0 90 c0 144 -7 135 91
133 l84 -2 0 -28z m218 -3 c27 -32 28 -55 1 -89 l-21 -26 21 -34 c28 -44 27
-46 -13 -46 -28 0 -38 6 -56 35 -12 19 -26 35 -31 35 -5 0 -9 -16 -9 -35 0
-33 -2 -35 -35 -35 l-35 0 0 108 c0 60 3 112 8 116 4 5 39 6 77 3 59 -5 74
-10 93 -32z m79 13 c-3 -8 -6 -5 -6 6 -1 11 2 17 5 13 3 -3 4 -12 1 -19z
m-977 -22 c0 -3 -4 -8 -10 -11 -5 -3 -10 -1 -10 4 0 6 5 11 10 11 6 0 10 -2
10 -4z m-33 -28 c-3 -8 -6 -5 -6 6 -1 11 2 17 5 13 3 -3 4 -12 1 -19z m1006
-13 c-7 -21 -13 -19 -13 6 0 11 4 18 10 14 5 -3 7 -12 3 -20z m-979 -20 c3 -8
1 -15 -3 -15 -5 0 -11 7 -15 15 -3 8 -1 15 3 15 5 0 11 -7 15 -15z m986 -9 c0
-3 -4 -8 -10 -11 -5 -3 -10 -1 -10 4 0 6 5 11 10 11 6 0 10 -2 10 -4z m0 -30
c0 -3 -4 -8 -10 -11 -5 -3 -10 -1 -10 4 0 6 5 11 10 11 6 0 10 -2 10 -4z
m-1006 -76 c12 -12 6 -13 -48 -10 -25 1 -36 -2 -32 -9 4 -6 24 -11 46 -11 43
0 50 -10 50 -70 0 -27 -5 -42 -17 -49 -10 -5 -76 -10 -146 -12 -122 -4 -129
-3 -152 19 -45 43 -45 135 0 170 23 18 27 18 156 0 73 -10 137 -22 143 -28z
m1026 41 c0 -10 -26 -9 -36 2 -4 4 2 7 14 7 12 0 22 -4 22 -9z m168 -16 c7
-14 12 -45 13 -68 0 -38 1 -40 10 -17 6 14 8 38 5 53 -7 35 8 27 30 -15 38
-73 15 -161 -49 -198 -25 -14 -31 -13 -82 14 l-55 28 0 99 c0 115 8 129 74
129 36 0 45 -4 54 -25z m-1045 -17 c9 -5 18 -21 19 -36 2 -46 3 -50 11 -58 4
-4 7 12 7 35 l0 42 53 -6 c28 -4 71 -13 95 -21 33 -13 42 -20 42 -39 0 -31
-19 -40 -110 -54 -41 -7 -99 -23 -129 -36 -87 -40 -86 -41 -87 80 0 86 2 105
15 108 19 5 59 -2 84 -15z m857 -73 l-6 -70 -4 68 c-3 40 -1 69 5 71 13 4 12
12 5 -69z m-8 -184 c-15 -42 -16 -629 -1 -647 6 -7 14 -12 18 -10 3 2 7 -11 8
-29 2 -19 -2 -37 -9 -41 -7 -4 -8 -3 -4 4 8 13 -3 62 -14 62 -5 0 -6 -12 -4
-27 18 -116 20 -164 6 -196 -16 -41 -32 -47 -151 -54 -47 -2 -94 -9 -104 -15
-15 -8 -18 -7 -12 3 6 9 -1 10 -31 5 -21 -4 -106 -7 -189 -7 -93 1 -146 -2
-140 -8 6 -5 26 -11 45 -14 20 -2 8 -4 -30 -5 -56 -1 -63 1 -48 12 17 13 -17
17 -242 29 -14 1 -31 7 -38 14 -8 7 -17 11 -21 8 -9 -5 -31 38 -31 61 0 8 -4
12 -10 9 -5 -3 -10 -1 -10 4 0 6 5 11 10 11 6 0 10 9 10 21 0 11 -4 17 -10 14
-5 -3 -10 1 -10 10 0 9 4 14 9 11 9 -6 31 63 33 104 0 14 2 91 3 173 3 141 2
148 -19 163 -21 16 -21 16 4 9 66 -19 84 -17 139 19 30 20 90 47 132 61 43 15
90 36 105 47 23 19 26 27 21 65 l-5 43 64 0 c104 0 284 28 405 63 l114 33 5
54 4 55 4 -44 c2 -23 -1 -55 -6 -70z m571 84 c104 -30 397 -137 657 -240 107
-43 240 -91 295 -107 133 -38 130 -37 118 -49 -6 -6 -25 -4 -54 7 -82 30 -129
43 -129 36 0 -5 36 -21 81 -37 89 -33 118 -53 42 -30 -26 9 -84 24 -128 36
-43 11 -128 38 -188 60 -59 22 -113 39 -120 36 -17 -5 154 -70 268 -101 55
-15 124 -34 153 -42 l52 -15 0 -49 c0 -70 16 -70 24 1 7 59 30 99 57 99 20 0
-8 -173 -33 -207 -7 -9 -22 -7 -61 7 -50 17 -422 174 -533 225 -30 14 -57 25
-59 25 -3 0 -42 18 -87 39 -107 51 -224 99 -368 151 -150 55 -200 80 -200 100
0 26 46 62 87 70 21 4 39 8 39 9 1 0 40 -10 87 -24z m-1568 -45 c3 -5 1 -10
-4 -10 -6 0 -11 5 -11 10 0 6 2 10 4 10 3 0 8 -4 11 -10z m25 -24 c0 -2 -7 -6
-15 -10 -8 -3 -15 -1 -15 4 0 6 7 10 15 10 8 0 15 -2 15 -4z m72 -37 c29 -11
76 -27 103 -34 48 -13 46 -13 -65 -9 l-115 3 -1 31 c-1 36 7 37 78 9z m-92 1
c0 -5 -2 -10 -4 -10 -3 0 -8 5 -11 10 -3 6 -1 10 4 10 6 0 11 -4 11 -10z
m1020 -10 c0 -5 -5 -10 -11 -10 -5 0 -7 5 -4 10 3 6 8 10 11 10 2 0 4 -4 4
-10z m247 -22 c13 -12 23 -28 23 -36 0 -18 -40 -51 -61 -52 -32 0 -41 82 -11
99 23 14 22 14 49 -11z m-907 -63 c14 -9 13 -40 -3 -53 -7 -6 -50 -24 -95 -40
l-82 -29 0 28 c0 15 -4 31 -10 34 -6 4 -10 -8 -10 -28 0 -27 -8 -42 -35 -66
-52 -46 -65 -41 -65 22 0 28 -5 69 -11 90 -5 20 -7 41 -4 46 6 10 298 7 315
-4z m760 -40 c35 -61 35 -85 0 -126 l-20 -24 -20 24 c-16 18 -20 38 -20 95 0
106 13 113 60 31z m-1115 5 c0 -8 -13 -18 -30 -21 -29 -6 -28 -7 10 -9 22 -1
32 -4 23 -7 -21 -5 -24 -23 -4 -23 14 0 29 -37 20 -51 -2 -4 -40 -19 -83 -34
-65 -21 -83 -24 -104 -14 -61 28 -64 144 -4 169 12 5 56 8 97 7 59 -2 75 -5
75 -17z m1006 -13 c-10 -9 -11 -8 -5 6 3 10 9 15 12 12 3 -3 0 -11 -7 -18z
m429 -38 c19 -12 71 -49 115 -84 160 -123 260 -179 482 -269 129 -52 454 -166
474 -166 4 0 19 -4 33 -9 18 -8 23 -15 19 -31 -7 -25 8 -29 -186 45 -82 31
-156 55 -165 53 -8 -2 64 -32 161 -68 100 -37 177 -70 177 -77 0 -18 2 -18
-118 31 -129 53 -157 62 -148 48 7 -11 229 -102 250 -102 9 0 17 -16 22 -42
l8 -43 7 69 c5 40 14 75 23 84 14 14 17 14 36 -3 23 -21 25 -42 8 -117 -18
-85 -17 -85 -164 -37 -132 42 -316 113 -437 168 -65 29 -103 50 -247 138 -36
21 -100 54 -142 72 -42 18 -94 49 -115 68 -75 69 -139 116 -180 134 -47 20
-63 52 -43 88 l11 22 52 -28 c28 -15 88 -64 132 -108 65 -64 101 -91 185 -134
58 -30 133 -72 168 -94 35 -22 65 -37 68 -35 7 7 -90 69 -201 128 -128 68
-126 67 -215 153 -42 40 -99 86 -127 102 -49 28 -51 31 -36 47 21 24 50 23 93
-3z m-420 -5 c0 -8 -4 -12 -10 -9 -5 3 -10 10 -10 16 0 5 5 9 10 9 6 0 10 -7
10 -16z m-1020 -138 c0 -3 -4 -8 -10 -11 -5 -3 -10 -1 -10 4 0 6 5 11 10 11 6
0 10 -2 10 -4z m1017 -38 c-3 -7 -5 -2 -5 12 0 14 2 19 5 13 2 -7 2 -19 0 -25z
m-1030 -270 c-3 -8 -6 -5 -6 6 -1 11 2 17 5 13 3 -3 4 -12 1 -19z m10 -80 c-2
-13 -4 -3 -4 22 0 25 2 35 4 23 2 -13 2 -33 0 -45z m1030 -20 c-3 -8 -6 -5 -6
6 -1 11 2 17 5 13 3 -3 4 -12 1 -19z m-1060 -40 c-3 -7 -5 -2 -5 12 0 14 2 19
5 13 2 -7 2 -19 0 -25z m1064 -9 c6 -13 7 -19 1 -15 -6 3 -13 -2 -15 -11 -2
-10 -4 -3 -3 14 1 39 2 39 17 12z m-6 -89 c-9 -41 -17 -33 -9 9 4 17 9 30 11
27 3 -2 2 -19 -2 -36z m-1001 -42 c11 -10 16 -18 9 -18 -16 0 -63 58 -63 78 1
11 7 6 17 -13 8 -16 25 -38 37 -47z m961 -8 c-3 -5 -15 -10 -25 -10 -10 0 -22
-5 -25 -10 -4 -6 -11 -7 -17 -4 -6 4 -1 12 13 20 28 16 63 18 54 4z m-892 -17
c-7 -2 -21 -2 -30 0 -10 3 -4 5 12 5 17 0 24 -2 18 -5z m68 -2 c-12 -8 -51 -4
-51 5 0 2 15 4 33 4 22 0 28 -3 18 -9z m619 -1 c0 -5 -7 -7 -15 -4 -8 4 -15 8
-15 10 0 2 7 4 15 4 8 0 15 -4 15 -10z m80 -9 c0 -4 -11 -6 -25 -3 -14 2 -25
6 -25 8 0 2 11 4 25 4 14 0 25 -4 25 -9z m-653 -7 c-3 -3 -12 -4 -19 -1 -8 3
-5 6 6 6 11 1 17 -2 13 -5z m93 -4 c13 -9 13 -10 0 -10 -8 0 -22 5 -30 10 -13
9 -13 10 0 10 8 0 22 -5 30 -10z m397 -6 c-3 -3 -12 -4 -19 -1 -8 3 -5 6 6 6
11 1 17 -2 13 -5z"/>
<path d="M2652 4254 c-23 -20 -54 -56 -69 -81 -25 -43 -27 -57 -31 -186 -6
-177 12 -179 22 -2 7 146 19 178 90 246 69 67 60 85 -12 23z"/>
<path d="M2938 3919 c-22 -12 -23 -42 -3 -59 32 -26 81 13 59 48 -14 21 -33
25 -56 11z m37 -29 c0 -7 -6 -15 -12 -17 -8 -3 -13 4 -13 17 0 13 5 20 13 18
6 -3 12 -11 12 -18z"/>
<path d="M2754 3816 c-10 -27 1 -51 26 -54 28 -5 50 20 43 48 -6 24 -61 28
-69 6z m49 -21 c1 -5 -6 -11 -15 -13 -11 -2 -18 3 -18 13 0 17 30 18 33 0z"/>
<path d="M3013 3649 c-24 -9 -37 -40 -28 -68 13 -42 90 -39 101 3 12 47 -27
82 -73 65z m51 -34 c8 -22 -4 -45 -24 -45 -23 0 -42 24 -34 44 8 20 50 21 58
1z"/>
<path d="M3188 3529 c-36 -21 -12 -89 32 -89 10 0 26 7 34 16 44 44 -12 105
-66 73z m56 -32 c8 -13 7 -20 -4 -27 -19 -12 -31 -9 -44 13 -8 13 -7 20 4 27
19 12 31 9 44 -13z"/>
<path d="M2962 3368 c-21 -21 -14 -66 12 -83 19 -13 28 -14 50 -4 21 10 26 19
26 50 0 24 -5 39 -16 43 -25 10 -59 7 -72 -6z m63 -38 c0 -18 -6 -26 -23 -28
-13 -2 -25 3 -28 12 -10 26 4 48 28 44 17 -2 23 -10 23 -28z"/>
<path d="M2590 2905 c0 -10 11 -15 35 -15 24 0 35 5 35 15 0 10 -11 15 -35 15
-24 0 -35 -5 -35 -15z"/>
<path d="M3260 2894 c0 -22 4 -25 28 -22 19 2 28 9 30 26 3 19 -1 22 -27 22
-27 0 -31 -4 -31 -26z"/>
<path d="M3340 2256 c0 -69 4 -127 9 -130 11 -7 21 131 14 199 -10 98 -23 58
-23 -69z"/>
<path d="M3062 2348 c-7 -7 -12 -24 -12 -38 0 -53 57 -69 86 -25 15 23 15 27
0 50 -18 27 -54 33 -74 13z m53 -38 c0 -16 -6 -26 -18 -28 -19 -4 -32 20 -23
44 9 25 41 13 41 -16z"/>
<path d="M2752 2258 c-27 -27 -4 -98 31 -98 27 0 57 32 57 59 0 34 -17 51 -50
51 -14 0 -31 -5 -38 -12z m56 -17 c23 -14 10 -46 -21 -49 -23 -3 -27 0 -27 21
0 36 19 47 48 28z"/>
<path d="M2940 2230 c-23 -23 -24 -33 -10 -61 12 -22 59 -26 78 -7 19 19 15
66 -7 78 -28 14 -38 13 -61 -10z m48 -9 c20 -12 10 -46 -14 -49 -25 -4 -40 24
-23 44 13 16 19 17 37 5z"/>
<path d="M3290 2031 l0 -189 -117 -7 c-113 -7 -463 -1 -588 11 -98 9 -42 -12
65 -24 184 -21 297 -24 480 -13 102 7 195 14 207 17 25 7 46 -26 57 -87 9 -51
-6 -83 -51 -105 -32 -16 -61 -19 -195 -19 -87 0 -158 -3 -158 -6 0 -10 86 -19
181 -19 175 0 249 36 249 120 0 43 -36 140 -51 140 -5 0 -9 38 -9 85 0 50 -4
85 -10 85 -6 0 -10 -35 -10 -85 0 -69 -3 -85 -15 -85 -13 0 -15 27 -15 185 0
117 -4 185 -10 185 -6 0 -10 -70 -10 -189z"/>
</g>
</svg>
